<svg xmlns="http://www.w3.org/2000/svg" width="16" height="16" viewBox="0 0 16 16" fill="none" class="injected-svg" data-src="/icons/mai-ic-schedule.mono.svg" xmlns:xlink="http://www.w3.org/1999/xlink">
<path d="M8.00065 1.33301C4.33398 1.33301 1.33398 4.33301 1.33398 7.99967C1.33398 11.6663 4.33398 14.6663 8.00065 14.6663C11.6673 14.6663 14.6673 11.6663 14.6673 7.99967C14.6673 4.33301 11.6673 1.33301 8.00065 1.33301ZM8.00065 13.333C5.06732 13.333 2.66732 10.933 2.66732 7.99967C2.66732 5.06634 5.06732 2.66634 8.00065 2.66634C10.934 2.66634 13.334 5.06634 13.334 7.99967C13.334 10.933 10.934 13.333 8.00065 13.333ZM10.4673 9.86634C10.734 10.133 10.734 10.533 10.4673 10.7997C10.334 10.933 10.134 10.9997 10.0007 10.9997C9.86732 10.9997 9.66731 10.933 9.53398 10.7997L7.53398 8.79967C7.46731 8.73301 7.40066 8.66634 7.40066 8.59967C7.33399 8.533 7.33398 8.39967 7.33398 8.33301V4.99967C7.33398 4.59967 7.60065 4.33301 8.00065 4.33301C8.40065 4.33301 8.66732 4.59967 8.66732 4.99967V8.06635L10.4673 9.86634Z" fill="black" fill-opacity="0.4"></path>
</svg>