<svg width="14" height="14" viewBox="0 0 14 14" fill="none" xmlns="http://www.w3.org/2000/svg">
<path d="M8.4998 6.9998L12.8998 11.3998C13.2998 11.7998 13.2998 12.3998 12.8998 12.7998L12.7998 12.8998C12.3998 13.2998 11.7998 13.2998 11.3998 12.8998L6.9998 8.4998L2.5998 12.8998C2.1998 13.2998 1.59981 13.2998 1.19981 12.8998L1.0998 12.7998C0.699805 12.3998 0.699805 11.7998 1.0998 11.3998L5.4998 6.9998L1.0998 2.5998C0.699805 2.1998 0.699805 1.59981 1.0998 1.19981L1.19981 1.0998C1.59981 0.699805 2.1998 0.699805 2.5998 1.0998L6.9998 5.4998L11.3998 1.0998C11.7998 0.699805 12.3998 0.699805 12.7998 1.0998L12.8998 1.19981C13.2998 1.59981 13.2998 2.1998 12.8998 2.5998L8.4998 6.9998Z" fill="#2B45D4"/>
</svg>
