<svg
  width="24"
  height="24"
  viewBox="0 0 24 24"
  fill="none"
  xmlns="http://www.w3.org/2000/svg"
>
  <path
    d="M12 3C13.1 3 14 3.6 14.6 4.5L21.6 16.5C22.1 17.4 22.2 18.6 21.6 19.5C21.1 20.4 20.1 21 19 21H5C3.9 21 2.89999 20.4 2.39999 19.5C1.89999 18.6 1.89999 17.4 2.39999 16.5L9.39999 4.5C9.99999 3.6 10.9 3 12 3ZM11.2 5.5L4.2 17.5C4 17.8 4 18.2 4.2 18.5C4.4 18.8 4.70001 19 5.10001 19H19.1C19.5 19 19.8 18.8 20 18.5C20.2 18.2 20.2 17.8 20 17.5L13 5.5C12.8 5.2 12.5 5 12.2 5C11.9 5 11.3 5.2 11.2 5.5ZM15.2 16.3L13.4 14.5L15.2 12.7C15.6 12.3 15.6 11.7 15.2 11.3C14.8 10.9 14.2 10.9 13.8 11.3L12 13.1L10.2 11.3C9.8 10.9 9.2 10.9 8.8 11.3C8.4 11.7 8.4 12.3 8.8 12.7L10.6 14.5L8.8 16.3C8.4 16.7 8.4 17.3 8.8 17.7C9.2 18.1 9.8 18.1 10.2 17.7L12 15.9L13.8 17.7C14.2 18.1 14.8 18.1 15.2 17.7C15.6 17.3 15.6 16.7 15.2 16.3Z"
    fill="white"
  />
</svg>
